<svg width="153" height="24" viewBox="0 0 153 24" fill="none" xmlns="http://www.w3.org/2000/svg">
<g opacity="0.5">
<path d="M15 7L5.00004 17" stroke="#364152" stroke-width="1.66667" stroke-linecap="square" stroke-linejoin="round"/>
<path d="M5.00004 7L15 17" stroke="#364152" stroke-width="1.66667" stroke-linecap="square" stroke-linejoin="round"/>
</g>
<g clip-path="url(#clip0_1_6)">
<path d="M52 12C52 5.37258 46.6274 1.90735e-06 40 1.90735e-06C33.3726 1.90735e-06 28 5.37258 28 12C28 18.6274 33.3726 24 40 24C46.6274 24 52 18.6274 52 12Z" fill="#0F1524"/>
<path d="M32.4715 17.3841C33.2543 18.4728 34.2584 19.3839 35.418 20.0574C36.5775 20.731 37.8664 21.1518 39.1999 21.2923C38.5139 20.2598 37.5165 19.3099 36.2714 18.5867C35.0264 17.8635 33.7078 17.4685 32.4715 17.3841Z" fill="url(#paint0_linear_1_6)"/>
<path d="M37.9448 15.7072C35.5461 14.3136 32.9498 13.9585 31.0921 14.5859C31.2714 15.1786 31.5079 15.7524 31.7983 16.2994C33.4123 16.262 35.1746 16.7004 36.8143 17.6528C38.4542 18.6052 39.7083 19.9197 40.4758 21.3406C41.0951 21.3216 41.7112 21.2427 42.3153 21.1051C41.9397 19.1808 40.343 17.1011 37.9448 15.7072Z" fill="url(#paint1_linear_1_6)"/>
<path d="M49.3751 10.0506C49.0701 8.80997 48.5183 7.64364 47.7525 6.62112C46.9868 5.59864 46.0228 4.74091 44.9183 4.09918C43.8137 3.45747 42.5911 3.04491 41.3236 2.88614C40.0561 2.72739 38.7695 2.82568 37.5407 3.17516C39.5935 3.42637 41.872 4.19697 44.1066 5.4951C46.341 6.79329 48.1407 8.39065 49.3751 10.0506Z" fill="url(#paint2_linear_1_6)"/>
<path d="M46.3887 14.5998C45.338 12.8548 43.5381 11.184 41.3208 9.89583C39.1035 8.60779 36.7609 7.87199 34.7265 7.82334C32.9366 7.78096 31.5932 8.3013 31.0418 9.25055C31.0387 9.2562 31.0343 9.26155 31.0308 9.2672C30.9812 9.44522 30.9385 9.62355 30.8996 9.80258C31.6695 9.49861 32.5616 9.32936 33.5536 9.31049C35.7596 9.26912 38.2284 9.97464 40.5066 11.2982C42.7847 12.6218 44.6221 14.4176 45.6784 16.3539C46.1519 17.2262 46.4474 18.085 46.5646 18.9056C46.7008 18.7837 46.8346 18.6579 46.9643 18.5269C46.9677 18.5209 46.97 18.5147 46.9734 18.5083C47.5248 17.5581 47.3116 16.1338 46.3887 14.5998Z" fill="url(#paint3_linear_1_6)"/>
<path d="M39.577 12.2944C36.1815 10.3217 32.4293 10.0128 30.625 11.3895C30.6286 11.8203 30.6615 12.2505 30.7236 12.6769C31.2544 12.516 31.8014 12.4147 32.3546 12.3748C34.3709 12.2232 36.5938 12.7849 38.611 13.9575C40.6283 15.1299 42.2185 16.7836 43.0858 18.6089C43.3254 19.109 43.5083 19.6344 43.6309 20.1753C44.0322 20.018 44.4223 19.8336 44.7987 19.6236C45.1008 17.3739 42.9733 14.2674 39.577 12.2944Z" fill="url(#paint4_linear_1_6)"/>
<path d="M48.1353 11.6793C47.0726 9.93622 45.257 8.26055 43.024 6.96403C40.7911 5.66745 38.4394 4.92009 36.3983 4.86011C34.8424 4.81521 33.6372 5.19234 33.0123 5.90484C35.607 5.46522 39.0294 6.2041 42.3467 8.13117C45.664 10.0583 48.0022 12.6659 48.9046 15.1375C49.2139 14.2422 48.9448 13.0085 48.1353 11.6793Z" fill="url(#paint5_linear_1_6)"/>
</g>
<path d="M62.3793 5.90909L65.1151 5.90909L65.1151 15.0369C65.1151 15.8807 64.9254 16.6136 64.5462 17.2358C64.1712 17.858 63.6491 18.3374 62.9801 18.674C62.3111 19.0107 61.5334 19.179 60.647 19.179C59.8587 19.179 59.1428 19.0405 58.4993 18.7635C57.8601 18.4822 57.353 18.0561 56.978 17.4851C56.603 16.9098 56.4176 16.1875 56.4219 15.3182L59.1768 15.3182C59.1854 15.6634 59.2557 15.9595 59.3878 16.2067C59.5241 16.4496 59.7095 16.6371 59.9439 16.7692C60.1825 16.897 60.4638 16.9609 60.7876 16.9609C61.1286 16.9609 61.4162 16.8885 61.6506 16.7436C61.8892 16.5945 62.0703 16.3771 62.1939 16.0916C62.3175 15.8061 62.3793 15.4545 62.3793 15.0369L62.3793 5.90909ZM73.1484 14.8196L73.1484 9.18182L75.8714 9.18182L75.8714 19L73.2571 19L73.2571 17.2166L73.1548 17.2166C72.9332 17.7919 72.5646 18.2543 72.049 18.6037C71.5376 18.9531 70.9134 19.1278 70.1761 19.1278C69.5199 19.1278 68.9425 18.9787 68.4439 18.6804C67.9453 18.3821 67.5554 17.9581 67.2741 17.4084C66.9972 16.8587 66.8565 16.2003 66.8523 15.4332L66.8523 9.18182L69.5753 9.18182L69.5753 14.9474C69.5795 15.527 69.7351 15.9851 70.0419 16.3217C70.3487 16.6584 70.7599 16.8267 71.2756 16.8267C71.6037 16.8267 71.9105 16.7521 72.196 16.603C72.4815 16.4496 72.7116 16.2237 72.8864 15.9254C73.0653 15.6271 73.1527 15.2585 73.1484 14.8196ZM77.5495 22.6818L77.5495 9.18182L80.2342 9.18182L80.2342 10.831L80.3556 10.831C80.475 10.5668 80.6475 10.2983 80.8734 10.0256C81.1035 9.74858 81.4018 9.51847 81.7683 9.33523C82.139 9.14773 82.5993 9.05398 83.149 9.05398C83.8649 9.05398 84.5254 9.24148 85.1305 9.61648C85.7356 9.98722 86.2193 10.5476 86.5815 11.2976C86.9437 12.0433 87.1248 12.9787 87.1248 14.1037C87.1248 15.1989 86.948 16.1236 86.5943 16.8778C86.2449 17.6278 85.7676 18.1967 85.1625 18.5845C84.5616 18.968 83.8883 19.1598 83.1426 19.1598C82.6142 19.1598 82.1646 19.0724 81.7939 18.8977C81.4274 18.723 81.127 18.5036 80.8926 18.2393C80.6582 17.9709 80.4792 17.7003 80.3556 17.4276L80.2725 17.4276L80.2725 22.6818L77.5495 22.6818ZM80.215 14.0909C80.215 14.6747 80.296 15.184 80.4579 15.6186C80.6199 16.0533 80.8542 16.392 81.161 16.6349C81.4679 16.8736 81.8407 16.9929 82.2797 16.9929C82.7228 16.9929 83.0978 16.8715 83.4047 16.6286C83.7115 16.3814 83.9437 16.0405 84.1014 15.6058C84.2633 15.1669 84.3443 14.6619 84.3443 14.0909C84.3443 13.5242 84.2654 13.0256 84.1078 12.5952C83.9501 12.1648 83.7179 11.8281 83.411 11.5852C83.1042 11.3423 82.7271 11.2209 82.2797 11.2209C81.8365 11.2209 81.4615 11.3381 81.1547 11.5724C80.8521 11.8068 80.6199 12.1392 80.4579 12.5696C80.296 13 80.215 13.5071 80.215 14.0909ZM88.4402 19L88.4402 9.18182L91.1632 9.18182L91.1632 19L88.4402 19ZM89.8081 7.9162C89.4032 7.9162 89.0559 7.78196 88.7662 7.5135C88.4806 7.24077 88.3379 6.91478 88.3379 6.53551C88.3379 6.16051 88.4806 5.83878 88.7662 5.57032C89.0559 5.29759 89.4032 5.16122 89.8081 5.16122C90.2129 5.16122 90.5581 5.29759 90.8436 5.57032C91.1333 5.83878 91.2782 6.16051 91.2782 6.53551C91.2782 6.91478 91.1333 7.24077 90.8436 7.5135C90.5581 7.78196 90.2129 7.9162 89.8081 7.9162ZM98.0668 9.18182L98.0668 11.2273L92.1541 11.2273L92.1541 9.18182L98.0668 9.18182ZM93.4964 6.82955L96.2195 6.82955L96.2195 15.983C96.2195 16.2344 96.2578 16.4304 96.3345 16.571C96.4112 16.7074 96.5178 16.8033 96.6541 16.8587C96.7947 16.9141 96.9567 16.9418 97.1399 16.9418C97.2678 16.9418 97.3956 16.9311 97.5234 16.9098C97.6513 16.8842 97.7493 16.8651 97.8175 16.8523L98.2457 18.8786C98.1094 18.9212 97.9176 18.9702 97.6705 19.0256C97.4233 19.0852 97.1229 19.1215 96.7692 19.1342C96.1129 19.1598 95.5376 19.0724 95.0433 18.8722C94.5533 18.6719 94.1719 18.3608 93.8991 17.9389C93.6264 17.517 93.4922 16.9844 93.4964 16.3409L93.4964 6.82955ZM103.71 19.1918C102.7 19.1918 101.83 18.9872 101.102 18.5781C100.377 18.1648 99.8189 17.581 99.4268 16.8267C99.0348 16.0682 98.8388 15.1712 98.8388 14.1357C98.8388 13.1257 99.0348 12.2393 99.4268 11.4766C99.8189 10.7138 100.371 10.1193 101.082 9.69318C101.798 9.26705 102.638 9.05398 103.601 9.05398C104.249 9.05398 104.852 9.15838 105.41 9.36719C105.972 9.57174 106.462 9.88069 106.88 10.294C107.302 10.7074 107.63 11.2273 107.864 11.8537C108.099 12.4759 108.216 13.2045 108.216 14.0398L108.216 14.7876L99.9254 14.7876L99.9254 13.1001L105.653 13.1001C105.653 12.7081 105.567 12.3608 105.397 12.0582C105.227 11.7557 104.99 11.5192 104.687 11.3487C104.389 11.174 104.042 11.0867 103.646 11.0867C103.232 11.0867 102.866 11.1825 102.546 11.3743C102.231 11.5618 101.984 11.8153 101.805 12.1349C101.626 12.4503 101.534 12.8018 101.53 13.1896L101.53 14.794C101.53 15.2798 101.619 15.6996 101.798 16.0533C101.982 16.407 102.239 16.6797 102.572 16.8715C102.904 17.0632 103.298 17.1591 103.754 17.1591C104.057 17.1591 104.334 17.1165 104.585 17.0313C104.837 16.946 105.052 16.8182 105.231 16.6477C105.41 16.4773 105.546 16.2685 105.64 16.0213L108.158 16.1875C108.031 16.7926 107.768 17.321 107.372 17.7727C106.98 18.2202 106.473 18.5696 105.851 18.821C105.233 19.0682 104.519 19.1918 103.71 19.1918ZM109.493 19L109.493 9.18182L112.133 9.18182L112.133 10.8949L112.235 10.8949C112.414 10.2855 112.714 9.82529 113.136 9.51421C113.558 9.19887 114.044 9.0412 114.594 9.0412C114.73 9.0412 114.877 9.04972 115.035 9.06676C115.192 9.08381 115.331 9.10725 115.45 9.13708L115.45 11.5533C115.322 11.5149 115.146 11.4808 114.92 11.451C114.694 11.4212 114.487 11.4063 114.3 11.4063C113.899 11.4063 113.541 11.4936 113.226 11.6683C112.915 11.8388 112.668 12.0774 112.484 12.3842C112.305 12.6911 112.216 13.0447 112.216 13.4453L112.216 19L109.493 19ZM120.075 19L120.075 5.90909L122.843 5.90909L122.843 16.718L128.455 16.718L128.455 19L120.075 19ZM129.788 19L129.788 5.90909L138.456 5.9091L138.456 8.19106L132.556 8.19106L132.556 11.3104L137.881 11.3104L137.881 13.5923L132.556 13.5923L132.556 19L129.788 19ZM148.498 10.1406C148.408 9.82955 148.283 9.55469 148.121 9.31606C147.959 9.07316 147.761 8.86861 147.526 8.70242C147.296 8.53197 147.032 8.40199 146.734 8.3125C146.44 8.22302 146.114 8.17827 145.756 8.17827C145.087 8.17827 144.499 8.34447 143.991 8.67685C143.489 9.00924 143.097 9.4929 142.815 10.1278C142.534 10.7585 142.393 11.5298 142.393 12.4418C142.393 13.3537 142.532 14.1293 142.809 14.7685C143.086 15.4077 143.478 15.8956 143.985 16.2322C144.492 16.5646 145.091 16.7308 145.781 16.7308C146.408 16.7308 146.942 16.62 147.386 16.3984C147.833 16.1726 148.174 15.8551 148.408 15.446C148.647 15.0369 148.766 14.5533 148.766 13.995L149.329 14.0781L145.954 14.0781L145.954 11.9943L151.432 11.9943L151.432 13.6435C151.432 14.794 151.189 15.7827 150.703 16.6094C150.217 17.4318 149.548 18.0668 148.696 18.5142C147.844 18.9574 146.868 19.179 145.768 19.179C144.541 19.179 143.463 18.9084 142.534 18.3672C141.605 17.8217 140.881 17.0483 140.361 16.0469C139.845 15.0412 139.587 13.848 139.587 12.4673C139.587 11.4063 139.741 10.4602 140.048 9.62927C140.359 8.79404 140.793 8.08665 141.352 7.50711C141.91 6.92756 142.56 6.48651 143.301 6.18395C144.043 5.8814 144.846 5.73012 145.711 5.73012C146.452 5.73012 147.143 5.83878 147.782 6.05611C148.421 6.26918 148.988 6.57174 149.482 6.96378C149.981 7.35583 150.388 7.82245 150.703 8.36364C151.018 8.90057 151.221 9.4929 151.31 10.1406L148.498 10.1406Z" fill="black"/>
<defs>
<linearGradient id="paint0_linear_1_6" x1="43.1306" y1="6.57599" x2="34.542" y2="21.3406" gradientUnits="userSpaceOnUse">
<stop offset="0.0001" stop-color="#C7F284"/>
<stop offset="1" stop-color="#00BEF0"/>
</linearGradient>
<linearGradient id="paint1_linear_1_6" x1="43.131" y1="6.57599" x2="34.5423" y2="21.3406" gradientUnits="userSpaceOnUse">
<stop offset="0.0001" stop-color="#C7F284"/>
<stop offset="1" stop-color="#00BEF0"/>
</linearGradient>
<linearGradient id="paint2_linear_1_6" x1="43.1304" y1="6.57601" x2="34.5417" y2="21.3406" gradientUnits="userSpaceOnUse">
<stop offset="0.0001" stop-color="#C7F284"/>
<stop offset="1" stop-color="#00BEF0"/>
</linearGradient>
<linearGradient id="paint3_linear_1_6" x1="43.1306" y1="6.57578" x2="34.5419" y2="21.3404" gradientUnits="userSpaceOnUse">
<stop offset="0.0001" stop-color="#C7F284"/>
<stop offset="1" stop-color="#00BEF0"/>
</linearGradient>
<linearGradient id="paint4_linear_1_6" x1="43.0737" y1="6.07101" x2="34.485" y2="20.8356" gradientUnits="userSpaceOnUse">
<stop offset="0.0001" stop-color="#C7F284"/>
<stop offset="1" stop-color="#00BEF0"/>
</linearGradient>
<linearGradient id="paint5_linear_1_6" x1="43.1307" y1="6.5759" x2="34.542" y2="21.3405" gradientUnits="userSpaceOnUse">
<stop offset="0.0001" stop-color="#C7F284"/>
<stop offset="1" stop-color="#00BEF0"/>
</linearGradient>
<clipPath id="clip0_1_6">
<rect width="24" height="24" fill="white" transform="translate(28 1.90735e-06)"/>
</clipPath>
</defs>
</svg>
